<?xml version="1.0" encoding="utf-8"?>
<!-- Generator: Adobe Illustrator 22.0.0, SVG Export Plug-In . SVG Version: 6.00 Build 0)  -->
<svg version="1.1" id="Layer_1" xmlns="http://www.w3.org/2000/svg" xmlns:xlink="http://www.w3.org/1999/xlink" x="0px" y="0px"
	 viewBox="0 0 49.1 42.6" style="enable-background:new 0 0 49.1 42.6;" xml:space="preserve">
<style type="text/css">
	.st0{fill:#FFFFFF;}
	.st1{fill:url(#SVGID_1_);}
	.st2{fill:#009FDA;}
</style>
<g>
	<rect x="5.4" class="st0" width="43.5" height="42.5"/>
	
		<radialGradient id="SVGID_1_" cx="-181.0708" cy="-276.4903" r="52.3764" gradientTransform="matrix(1 0 0 1 192.4434 282.4648)" gradientUnits="userSpaceOnUse">
		<stop  offset="0" style="stop-color:#00B8E9"/>
		<stop  offset="0.427" style="stop-color:#009ACA"/>
		<stop  offset="0.5077" style="stop-color:#0090BD"/>
		<stop  offset="0.8347" style="stop-color:#006D8E"/>
		<stop  offset="1" style="stop-color:#00607E"/>
	</radialGradient>
	<path class="st1" d="M47.3,31.5c0,0-0.1,0-0.2,0l-3.4,0v-0.2c-0.4,0.2-0.8,0.2-1.2,0.2c0,0-0.1,0-0.2,0l-2,0v0h-4.9v0h-3.3v-1
		c0,0,0-0.7,0-0.8c0,0-0.1,0-0.2,0c0,0.4,0,1.8,0,1.8h-3.4v-2c-0.6,0.2-1.2,0.3-1.8,0.3c0,0-0.2,0-0.3,0c0,0.3,0,1.7,0,1.7h-4
		c0,0-0.6-0.7-1-1.1c-0.3,0.4-1,1.1-1,1.1h-6.5v-7.3h6.4c0,0,0.7,0.8,1.1,1.2c0.4-0.4,1.1-1.2,1.1-1.2h0.4l1,0h3.2
		c0.2,0,0.7,0,1.2,0.2v-0.2h4.2c0.2,0,0.7,0,1.3,0.2v-0.2h5.2h1v0.2c0.6-0.2,1.1-0.2,1.2-0.2l3.5,0v0.2c0.6-0.2,1.1-0.2,1.2-0.2
		l2.5,0V0H5.4v18.7l1.5-3.5h3.2c0,0,0.4,0.9,0.4,0.9c0-0.1,0-0.9,0-0.9h3.8c0,0,0.6,1.3,0.8,1.9c0.3-0.6,0.8-1.9,0.8-1.9h2.5h0.3h1
		h3.7h0.3h1h2.9c0.2,0,0.7,0,1.3,0.2v-0.2h2.4h1v0.4c0.5-0.3,1.1-0.5,1.6-0.5c0,0,1.8,0,1.9,0.1l0,0H39c0,0,0.3,0.8,0.4,0.9
		c0-0.2,0-0.9,0-0.9h3.5c0,0,0.5,0.8,0.6,0.9c0-0.1,0-0.9,0-0.9h3.4v7.3h-3.4c0,0-0.5-0.8-0.6-1c0,0.1,0,1,0,1h-4.3
		c0,0-0.4-0.9-0.5-1.1c-0.4,0-0.7,0-1.1,0c-0.1,0.2-0.5,1.1-0.5,1.1h-2.9l-0.1,0c-0.3,0-0.7-0.2-1.1-0.4v0.5H30c0,0,0,0,0,0h-3v-1
		c0,0,0-0.7,0-0.8c0,0-0.1,0-0.2,0c0,0.4,0,1.8,0,1.8h-2.1h-1.3h-3.7h-0.3h-3.1c0,0,0-0.1,0-0.1c0,0-0.1,0.1-0.1,0.1h-2.4
		c0,0,0-0.1-0.1-0.1c0,0,0,0.1,0,0.1H9.5c0,0-0.4-0.9-0.5-1.1c-0.4,0-0.7,0-1.1,0c-0.1,0.3-0.5,1.1-0.5,1.1h-2v20.1h43.5V31
		C48.4,31.3,47.8,31.5,47.3,31.5z"/>
	<g>
		<g>
			<defs>
				<path id="SVGID_2_" d="M28,21.4v-1c0,0-0.1-0.8-0.9-0.8h-1.3v1.8h-1.3v-5.3h3.3c0,0,1.7-0.2,1.7,1.6c0,0.9-0.8,1.2-0.8,1.2
					s0.7,0.3,0.7,1.2v1.3H28 M25.8,18.4h1.4c0.4,0,0.7-0.2,0.7-0.5c0-0.3-0.3-0.5-0.7-0.5h-1.4V18.4L25.8,18.4"/>
			</defs>
			<radialGradient id="SVGID_3_" cx="11.3896" cy="5.9765" r="52.3765" gradientUnits="userSpaceOnUse">
				<stop  offset="0" style="stop-color:#00B8E9"/>
				<stop  offset="0.427" style="stop-color:#009ACA"/>
				<stop  offset="0.5077" style="stop-color:#0090BD"/>
				<stop  offset="0.8347" style="stop-color:#006D8E"/>
				<stop  offset="1" style="stop-color:#00607E"/>
			</radialGradient>
			<use xlink:href="#SVGID_2_"  style="overflow:visible;fill:url(#SVGID_3_);"/>
			<clipPath id="SVGID_4_">
				<use xlink:href="#SVGID_2_"  style="overflow:visible;"/>
			</clipPath>
		</g>
		<g>
			<defs>
				<path id="SVGID_5_" d="M43.9,21.4l-2.1-3.6v3.6h-1.2h-0.2h-1.3l-0.5-1.1h-2.5l-0.5,1.1h-1.2h-0.2h-0.6c0,0-1.8-0.3-1.8-2.5
					c0-3,2.1-2.8,2.1-2.9l1.7,0v1.2l-1.4,0c0,0-0.9,0-1,1.2c0,0.1,0,0.3,0,0.4c0,1.8,1.6,1.2,1.6,1.2l1.7-4h1.9l2,4.8v-4.8h1.9
					l2.1,3.5v-3.5h1.4v5.3H43.9 M36.8,19h1.3l-0.6-1.6L36.8,19L36.8,19"/>
			</defs>
			<radialGradient id="SVGID_6_" cx="11.3901" cy="5.9755" r="52.3763" gradientUnits="userSpaceOnUse">
				<stop  offset="0" style="stop-color:#00B8E9"/>
				<stop  offset="0.427" style="stop-color:#009ACA"/>
				<stop  offset="0.5077" style="stop-color:#0090BD"/>
				<stop  offset="0.8347" style="stop-color:#006D8E"/>
				<stop  offset="1" style="stop-color:#00607E"/>
			</radialGradient>
			<use xlink:href="#SVGID_5_"  style="overflow:visible;fill:url(#SVGID_6_);"/>
			<clipPath id="SVGID_7_">
				<use xlink:href="#SVGID_5_"  style="overflow:visible;"/>
			</clipPath>
		</g>
		<g>
			<defs>
				<path id="SVGID_8_" d="M17.4,21.4v-3.7l-1.7,3.7h-1.1l-1.7-3.7v3.7h-1.2h-0.2h-1.3l-0.5-1.1H7.3l-0.5,1.1H5.3l2.2-5.3h1.9
					l2.1,4.9v-4.9h2.1l1.5,3.3l1.5-3.3h2.1v5.3H17.4 M7.9,19h1.3l-0.7-1.6L7.9,19L7.9,19"/>
			</defs>
			<radialGradient id="SVGID_9_" cx="11.3901" cy="5.9765" r="52.3763" gradientUnits="userSpaceOnUse">
				<stop  offset="0" style="stop-color:#00B8E9"/>
				<stop  offset="0.427" style="stop-color:#009ACA"/>
				<stop  offset="0.5077" style="stop-color:#0090BD"/>
				<stop  offset="0.8347" style="stop-color:#006D8E"/>
				<stop  offset="1" style="stop-color:#00607E"/>
			</radialGradient>
			<use xlink:href="#SVGID_8_"  style="overflow:visible;fill:url(#SVGID_9_);"/>
			<clipPath id="SVGID_10_">
				<use xlink:href="#SVGID_8_"  style="overflow:visible;"/>
			</clipPath>
		</g>
		<g>
			<defs>
				<polyline id="SVGID_11_" points="19.5,21.4 19.5,16.1 23.7,16.1 23.7,17.4 20.9,17.4 20.9,18.2 23.7,18.2 23.7,19.4 20.9,19.4 
					20.9,20.3 23.7,20.3 23.7,21.4 19.5,21.4 				"/>
			</defs>
			<radialGradient id="SVGID_12_" cx="11.3896" cy="5.9765" r="52.3761" gradientUnits="userSpaceOnUse">
				<stop  offset="0" style="stop-color:#00B8E9"/>
				<stop  offset="0.427" style="stop-color:#009ACA"/>
				<stop  offset="0.5077" style="stop-color:#0090BD"/>
				<stop  offset="0.8347" style="stop-color:#006D8E"/>
				<stop  offset="1" style="stop-color:#00607E"/>
			</radialGradient>
			<use xlink:href="#SVGID_11_"  style="overflow:visible;fill:url(#SVGID_12_);"/>
			<clipPath id="SVGID_13_">
				<use xlink:href="#SVGID_11_"  style="overflow:visible;"/>
			</clipPath>
		</g>
		<g>
			<defs>
				<polyline id="SVGID_14_" points="30,21.5 30,16.1 31.3,16.1 31.3,21.5 30,21.5 				"/>
			</defs>
			<radialGradient id="SVGID_15_" cx="11.3896" cy="5.977" r="52.3769" gradientUnits="userSpaceOnUse">
				<stop  offset="0" style="stop-color:#00B8E9"/>
				<stop  offset="0.427" style="stop-color:#009ACA"/>
				<stop  offset="0.5077" style="stop-color:#0090BD"/>
				<stop  offset="0.8347" style="stop-color:#006D8E"/>
				<stop  offset="1" style="stop-color:#00607E"/>
			</radialGradient>
			<use xlink:href="#SVGID_14_"  style="overflow:visible;fill:url(#SVGID_15_);"/>
			<clipPath id="SVGID_16_">
				<use xlink:href="#SVGID_14_"  style="overflow:visible;"/>
			</clipPath>
		</g>
	</g>
	<g>
		<g>
			<defs>
				<path id="SVGID_17_" d="M33.2,30.5v-1c0,0-0.1-0.8-0.9-0.8H31v1.8h-1.4v-5.3h3.3c0,0,1.7-0.2,1.7,1.6c0,0.9-0.8,1.2-0.8,1.2
					s0.6,0.3,0.6,1.2v1.3H33.2 M31,27.4h1.4c0.4,0,0.7-0.2,0.7-0.5c0-0.3-0.3-0.5-0.7-0.5H31V27.4L31,27.4"/>
			</defs>
			<radialGradient id="SVGID_18_" cx="11.3896" cy="5.977" r="52.3754" gradientUnits="userSpaceOnUse">
				<stop  offset="0" style="stop-color:#00B8E9"/>
				<stop  offset="0.427" style="stop-color:#009ACA"/>
				<stop  offset="0.5077" style="stop-color:#0090BD"/>
				<stop  offset="0.8347" style="stop-color:#006D8E"/>
				<stop  offset="1" style="stop-color:#00607E"/>
			</radialGradient>
			<use xlink:href="#SVGID_17_"  style="overflow:visible;fill:url(#SVGID_18_);"/>
			<clipPath id="SVGID_19_">
				<use xlink:href="#SVGID_17_"  style="overflow:visible;"/>
			</clipPath>
		</g>
		<g>
			<defs>
				<path id="SVGID_20_" d="M24.2,30.5H23l-1.4-1.6l-1.4,1.6h-0.8h-4.2v-5.3h4.2H20l1.5,1.7l1.6-1.7h1v0h3.3c0,0,1.7-0.2,1.7,1.6
					c0,1.6-0.6,2.1-2.3,2.1h-1.3v1.7H24.2 M22.5,27.8l1.7,1.9V26L22.5,27.8L22.5,27.8 M16.5,29.3h2.8l1.3-1.5l-1.3-1.5h-2.8v0.8h2.8
					v1.2h-2.8V29.3L16.5,29.3 M25.5,27.4h1.4c0.4,0,0.7-0.2,0.7-0.5c0-0.3-0.3-0.5-0.7-0.5h-1.4V27.4L25.5,27.4"/>
			</defs>
			<radialGradient id="SVGID_21_" cx="11.3901" cy="5.976" r="52.3775" gradientUnits="userSpaceOnUse">
				<stop  offset="0" style="stop-color:#00B8E9"/>
				<stop  offset="0.427" style="stop-color:#009ACA"/>
				<stop  offset="0.5077" style="stop-color:#0090BD"/>
				<stop  offset="0.8347" style="stop-color:#006D8E"/>
				<stop  offset="1" style="stop-color:#00607E"/>
			</radialGradient>
			<use xlink:href="#SVGID_20_"  style="overflow:visible;fill:url(#SVGID_21_);"/>
			<clipPath id="SVGID_22_">
				<use xlink:href="#SVGID_20_"  style="overflow:visible;"/>
			</clipPath>
		</g>
		<g>
			<defs>
				<path id="SVGID_23_" d="M42.4,30.4H40v-1.2h2.1c0,0,0.8,0.1,0.8-0.4c0-0.5-1.1-0.4-1.1-0.4s-1.9,0.2-1.9-1.6
					c0-1.7,1.7-1.6,1.7-1.6h2.6v1.2H42c0,0-0.7-0.1-0.7,0.4c0,0.4,1,0.4,1,0.4s2.1-0.2,2.1,1.4c0,1.7-1.3,1.9-1.8,1.9
					C42.5,30.5,42.4,30.4,42.4,30.4"/>
			</defs>
			<radialGradient id="SVGID_24_" cx="11.3896" cy="5.977" r="52.3767" gradientUnits="userSpaceOnUse">
				<stop  offset="0" style="stop-color:#00B8E9"/>
				<stop  offset="0.427" style="stop-color:#009ACA"/>
				<stop  offset="0.5077" style="stop-color:#0090BD"/>
				<stop  offset="0.8347" style="stop-color:#006D8E"/>
				<stop  offset="1" style="stop-color:#00607E"/>
			</radialGradient>
			<use xlink:href="#SVGID_23_"  style="overflow:visible;fill:url(#SVGID_24_);"/>
			<clipPath id="SVGID_25_">
				<use xlink:href="#SVGID_23_"  style="overflow:visible;"/>
			</clipPath>
		</g>
		<g>
			<defs>
				<polyline id="SVGID_26_" points="35.2,30.5 35.2,25.1 39.4,25.1 39.4,26.4 36.5,26.4 36.5,27.2 39.3,27.2 39.3,28.4 36.5,28.4 
					36.5,29.3 39.4,29.3 39.4,30.5 35.2,30.5 				"/>
			</defs>
			<radialGradient id="SVGID_27_" cx="11.3896" cy="5.976" r="52.378" gradientUnits="userSpaceOnUse">
				<stop  offset="0" style="stop-color:#00B8E9"/>
				<stop  offset="0.427" style="stop-color:#009ACA"/>
				<stop  offset="0.5077" style="stop-color:#0090BD"/>
				<stop  offset="0.8347" style="stop-color:#006D8E"/>
				<stop  offset="1" style="stop-color:#00607E"/>
			</radialGradient>
			<use xlink:href="#SVGID_26_"  style="overflow:visible;fill:url(#SVGID_27_);"/>
			<clipPath id="SVGID_28_">
				<use xlink:href="#SVGID_26_"  style="overflow:visible;"/>
			</clipPath>
		</g>
		<g>
			<defs>
				<path id="SVGID_29_" d="M47.2,30.4h-2.4v-1.2h2.1c0,0,0.8,0.1,0.8-0.4c0-0.5-1.1-0.4-1.1-0.4s-1.9,0.2-1.9-1.6
					c0-1.7,1.7-1.6,1.7-1.6h2.6v1.2h-2.1c0,0-0.7-0.1-0.7,0.4c0,0.4,1,0.4,1,0.4s2.1-0.2,2.1,1.4c0,1.7-1.3,1.9-1.8,1.9
					C47.2,30.5,47.2,30.4,47.2,30.4"/>
			</defs>
			<radialGradient id="SVGID_30_" cx="11.3896" cy="5.977" r="52.3754" gradientUnits="userSpaceOnUse">
				<stop  offset="0" style="stop-color:#00B8E9"/>
				<stop  offset="0.427" style="stop-color:#009ACA"/>
				<stop  offset="0.5077" style="stop-color:#0090BD"/>
				<stop  offset="0.8347" style="stop-color:#006D8E"/>
				<stop  offset="1" style="stop-color:#00607E"/>
			</radialGradient>
			<use xlink:href="#SVGID_29_"  style="overflow:visible;fill:url(#SVGID_30_);"/>
			<clipPath id="SVGID_31_">
				<use xlink:href="#SVGID_29_"  style="overflow:visible;"/>
			</clipPath>
		</g>
	</g>
	<path class="st2" d="M0,40.6c0-1.1,0.9-2,2-2c1.1,0,2,0.9,2,2c0,1.1-0.9,2-2,2C0.9,42.6,0,41.7,0,40.6 M0.3,40.6
		c0,0.9,0.7,1.7,1.7,1.7c1,0,1.7-0.8,1.7-1.7c0-0.9-0.7-1.7-1.7-1.7C1,38.9,0.3,39.7,0.3,40.6 M2.5,41.5c0-0.2-0.1-0.4-0.1-0.5
		c0-0.1,0-0.3-0.3-0.3H1.6v0.8H1.3v-1.9h0.9c0.3,0,0.6,0.1,0.6,0.5c0,0.2-0.1,0.3-0.2,0.4c0.1,0,0.2,0.1,0.2,0.3l0,0.3
		c0,0.1,0,0.1,0.1,0.2v0.1H2.5 M1.6,40.5h0.5c0.2,0,0.3,0,0.3-0.3C2.5,40,2.3,40,2.2,40H1.6V40.5"/>
</g>
</svg>
