<?xml version="1.0" encoding="UTF-8"?>
<svg width="47px" height="30px" viewBox="0 0 47 30" version="1.1" xmlns="http://www.w3.org/2000/svg" xmlns:xlink="http://www.w3.org/1999/xlink">
    <title>Apple_Pay_Mark_RGB_041619</title>
    <g id="Symbols" stroke="none" stroke-width="1" fill="none" fill-rule="evenodd">
        <g id="footer/ibe/default" transform="translate(-855.000000, -129.000000)" fill-rule="nonzero">
            <g id="Payment-logos" transform="translate(141.000000, 125.000000)">
                <g id="Apple_Pay_Mark_RGB_041619" transform="translate(714.000000, 4.000000)">
                    <path d="M42.7909829,0 L4.20906709,0 C4.04837878,0 3.88740653,0 3.72700501,0.000934269868 C3.5914152,0.00189685094 3.45614057,0.00339734497 3.32086595,0.00707780203 C3.02584006,0.0150332515 2.728287,0.0323880221 2.43695248,0.0845938899 C2.14096115,0.137705716 1.86552793,0.224338013 1.59682437,0.360741414 C1.33266404,0.49468174 1.09082231,0.669871495 0.881240349,0.878921456 C0.671567521,1.08797142 0.495858165,1.32870162 0.361548976,1.5923639 C0.224712618,1.86027286 0.137766585,2.13497652 0.0848663698,2.43031904 C0.0322245508,2.72087697 0.0147018869,3.0174935 0.00675123733,3.31133552 C0.00311665465,3.44621012 0.00155775942,3.58108472 0.00067466941,3.715931 C0,3.87620075 0,4.03635725 0,4.19691011 L0,25.8034013 C0,25.9639542 0,26.1238304 0.00067466941,26.2844116 C0.00155775942,26.4192578 0.00311665465,26.5541324 0.00675123733,26.689007 C0.0147018869,26.9825914 0.0322245508,27.279208 0.0848663698,27.569681 C0.137766585,27.8651367 0.224712618,28.1397271 0.361548976,28.4076644 C0.495858165,28.6713267 0.671567521,28.9123683 0.881240349,29.1211069 C1.09082231,29.3304966 1.33266404,29.505658 1.59682437,29.6392586 C1.86552793,29.77603 2.14096115,29.8626906 2.43695248,29.9157742 C2.728287,29.9676403 3.02584006,29.9853065 3.32086595,29.9932619 C3.45614057,29.9963195 3.5914152,29.9981315 3.72700501,29.9987543 C3.88740653,30 4.04837878,30 4.20906709,30 L42.7909829,30 C42.9513872,30 43.1123623,30 43.2727326,29.9987543 C43.4080101,29.9981315 43.5432875,29.9963195 43.6791812,29.9932619 C43.9735824,29.9853065 44.2710787,29.9676403 44.5631259,29.9157742 C44.8587197,29.8626906 45.1342097,29.77603 45.4029417,29.6392586 C45.6673859,29.505658 45.9085178,29.3304966 46.1185314,29.1211069 C46.3278606,28.9123683 46.5035671,28.6713267 46.6382199,28.4076644 C46.7753658,28.1397271 46.8622266,27.8651367 46.9148713,27.569681 C46.9675443,27.279208 46.9846382,26.9825914 46.9926173,26.689007 C46.9963086,26.5541324 46.9981288,26.4192578 46.9987535,26.2844116 C47,26.1238304 47,25.963957 47,25.8034013 L47,4.19691011 C47,4.03635725 47,3.87620075 46.9987535,3.715931 C46.9981288,3.58108472 46.9963086,3.44621012 46.9926173,3.31133552 C46.9846354,3.0174935 46.9675443,2.72087697 46.9148713,2.43031904 C46.8622294,2.13497652 46.7753658,1.86027286 46.6382199,1.5923639 C46.5035671,1.32870162 46.3278606,1.08797142 46.1185314,0.878921456 C45.9085178,0.669871495 45.6673859,0.49468174 45.4029417,0.360741414 C45.1342097,0.224338013 44.8587197,0.137705716 44.5631259,0.0845938899 C44.2710815,0.0323880221 43.9735852,0.0150332515 43.6791812,0.00707780203 C43.5432875,0.00339734497 43.4080101,0.00189685094 43.2727326,0.000934269868 C43.1123623,0 42.9513872,0 42.7909829,0 L42.7909829,0 Z" id="XMLID_4_" fill="#000000"></path>
                    <path d="M42.7934832,1 L43.2681675,1.00090596 C43.3967576,1.00181191 43.5253505,1.00319916 43.6546534,1.00670973 C43.8795754,1.01276831 44.1426852,1.02491378 44.3879379,1.06873938 C44.6011283,1.107016 44.7799247,1.16522364 44.9515136,1.25230862 C45.1209128,1.3381196 45.2761155,1.45057133 45.4116293,1.58547377 C45.5476599,1.72128217 45.660605,1.87625719 45.747818,2.0470015 C45.8346873,2.21672661 45.8927062,2.39412403 45.9308743,2.60821265 C45.9747221,2.85004615 45.9868484,3.11305637 45.9930138,3.33866761 C45.9964757,3.46601099 45.9981796,3.59335437 45.9988072,3.72372703 C46,3.88139161 46,4.03897125 46,4.19694725 L46,25.8033641 C46,25.9613401 46,26.1186366 45.9987788,26.2796702 C45.9981796,26.4069853 45.9964785,26.5343287 45.9929854,26.6618986 C45.9868484,26.8871701 45.974725,27.1500387 45.9303375,27.3947317 C45.8927062,27.6058759 45.8347185,27.7833016 45.7473664,27.9538761 C45.6604062,28.1241957 45.5476343,28.2790009 45.4121972,28.41396 C45.2759139,28.5498533 45.1212224,28.6619653 44.9498096,28.748569 C44.7795016,28.8352293 44.6010118,28.8933831 44.389923,28.9312606 C44.1397034,28.975709 43.865569,28.9879394 43.6591092,28.9935167 C43.5292128,28.9964327 43.3999411,28.9981852 43.26752,28.9988109 C43.1097046,29 42.9513269,29 42.793486,29 L4.20654519,29 C4.20444368,29 4.20239896,29 4.20026904,29 C4.04424563,29 3.88790983,29 3.72904654,28.9987826 C3.59951927,28.9981852 3.470276,28.9964611 3.34532096,28.9936299 C3.13414694,28.9879394 2.85984222,28.9757373 2.61166446,28.9315437 C2.39876095,28.8933803 2.22027119,28.8352293 2.04771964,28.7474365 C1.87792561,28.6615972 1.7233477,28.5495985 1.58700471,28.4134504 C1.45171248,28.2788027 1.33928134,28.1244788 1.25235239,27.9539044 C1.16533824,27.7834998 1.10712055,27.6055362 1.06884171,27.3918722 C1.02459342,27.1476606 1.01243871,26.8858394 1.00636419,26.6620967 C1.00289669,26.533989 1.00144834,26.4059095 1.00062478,26.2785661 L1,25.9026229 L1,25.8033641 L1,4.19694725 L1,4.09768849 L1.00059638,3.72253796 C1.00144834,3.59443019 1.00289669,3.46635072 1.00636419,3.33835619 C1.01243871,3.11438699 1.02459342,2.8524526 1.06920805,2.60620256 C1.10714895,2.39446376 1.16533824,2.21650012 1.25280677,2.04524621 C1.33905415,1.87597408 1.45168408,1.72145203 1.58768913,1.58589844 C1.72315175,1.45079782 1.87823516,1.33848764 2.04911118,1.25185564 C2.21981681,1.16519533 2.39864451,1.107016 2.61155087,1.06882431 C2.85686034,1.02488547 3.12014629,1.01276831 3.34563335,1.00668142 C3.47416665,1.00319916 3.60269995,1.00181191 3.73026769,1.00093427 L4.20654519,1 L42.7934832,1" id="XMLID_3_" fill="#FFFFFF"></path>
                    <g id="Group" transform="translate(7.000000, 9.000000)" fill="#000000">
                        <g id="Path">
                            <path d="M6.42586328,1.80537707 C6.82615682,1.31938002 7.09779346,0.666829206 7.02615107,0 C6.44017763,0.0282826123 5.7251095,0.375249072 5.31112016,0.861627206 C4.93940166,1.27813501 4.61040027,1.95800887 4.6961706,2.59688446 C5.35395589,2.65226804 6.01113393,2.27773727 6.42586328,1.80537707"></path>
                            <path d="M7.01867756,2.72162569 C6.06341465,2.6663929 5.25120774,3.24788351 4.79502099,3.24788351 C4.33858287,3.24788351 3.64001239,2.74945868 2.88445,2.76289264 C1.90103854,2.77691332 0.988546416,3.31663527 0.489506983,4.17504654 C-0.536932271,5.89229131 0.218630124,8.43956605 1.21678808,9.83816535 C1.70151598,10.5300969 2.28569589,11.2919645 3.05544271,11.2645976 C3.7827238,11.2368963 4.06778792,10.8074809 4.95182928,10.8074809 C5.83522101,10.8074809 6.09200382,11.2645976 6.86187492,11.2507497 C7.66025046,11.2368935 8.15937745,10.5584727 8.6440997,9.86586674 C9.20017343,9.07710098 9.42781065,8.3154828 9.44212783,8.27367301 C9.42780783,8.25982506 7.90263418,7.69188904 7.88849212,5.98891717 C7.87409303,4.56299483 9.08592408,3.88474675 9.14295837,3.84268473 C8.45862599,2.86023681 7.38937077,2.74945868 7.01867756,2.72162569"></path>
                        </g>
                        <g transform="translate(11.324612, 0.791872)">
                            <path d="M4.01175339,0 C6.08800147,0 7.53376829,1.38920649 7.53376829,3.41178339 C7.53376829,5.44158173 6.05825145,6.83800418 3.95969015,6.83800418 L1.66088605,6.83800418 L1.66088605,10.3865399 L0,10.3865399 L0,0 L4.01175339,0 L4.01175339,0 Z M1.66088322,5.4847596 L3.56663569,5.4847596 C5.01268779,5.4847596 5.8356926,4.72906881 5.8356926,3.41900209 C5.8356926,2.10907519 5.01268779,1.36046603 3.57407249,1.36046603 L1.66088322,1.36046603 L1.66088322,5.4847596 L1.66088322,5.4847596 Z" id="Shape"></path>
                            <path d="M7.96772373,8.23442938 C7.96772373,6.90992251 9.01328739,6.09661646 10.8672647,5.99582059 L13.0027276,5.87350569 L13.0027276,5.29052911 C13.0027276,4.44834278 12.4168699,3.94450323 11.4382459,3.94450323 C10.5111146,3.94450323 9.93269379,4.37628736 9.79195103,5.0529782 L8.27924454,5.0529782 C8.36821216,3.68529347 9.56939218,2.67761437 11.4974607,2.67761437 C13.3883396,2.67761437 14.5969564,3.6493343 14.5969564,5.16807439 L14.5969564,10.3865426 L13.0619423,10.3865426 L13.0619423,9.1413126 L13.0250408,9.1413126 C12.5727744,9.98349894 11.5864283,10.5160762 10.5631779,10.5160762 C9.03559779,10.5160762 7.96772373,9.59475284 7.96772373,8.23442938 Z M13.0027276,7.55065692 L13.0027276,6.95324294 L11.0820958,7.06833914 C10.1254998,7.13317585 9.5842686,7.54343822 9.5842686,8.19125151 C9.5842686,8.85336512 10.147813,9.28528634 11.0080075,9.28528634 C12.1276595,9.28528634 13.0027276,8.53667718 13.0027276,7.55065692 Z" id="Shape"></path>
                            <path d="M16.0461549,13.1721688 L16.0461549,11.9125014 C16.1645845,11.9412419 16.4314817,11.9412419 16.5650729,11.9412419 C17.3065497,11.9412419 17.7070382,11.6389913 17.9516221,10.8616444 C17.9516221,10.8472043 18.0926502,10.4009828 18.0926502,10.3937641 L15.2749253,2.81436941 L17.0098997,2.81436941 L18.9825918,8.97581984 L19.0120566,8.97581984 L20.9847515,2.81436941 L22.6753876,2.81436941 L19.7535334,10.7823676 C19.0864359,12.6179327 18.3152062,13.208128 16.6986641,13.208128 C16.5650757,13.208128 16.1645873,13.1936878 16.0461549,13.1721688 Z" id="Path"></path>
                        </g>
                    </g>
                </g>
            </g>
        </g>
    </g>
</svg>