<?xml version="1.0" encoding="UTF-8"?>
<svg width="57px" height="30px" viewBox="0 0 57 30" version="1.1" xmlns="http://www.w3.org/2000/svg" xmlns:xlink="http://www.w3.org/1999/xlink">
    <title>google-pay-mark_800</title>
    <g id="Symbols" stroke="none" stroke-width="1" fill="none" fill-rule="evenodd">
        <g id="footer/ibe/default" transform="translate(-942.000000, -129.000000)" fill-rule="nonzero">
            <g id="Payment-logos" transform="translate(141.000000, 125.000000)">
                <g id="google-pay-mark_800" transform="translate(801.000000, 4.000000)">
                    <path d="M41.8404255,0 L15.1595745,0 C6.82180851,0 0,6.75 0,15 L0,15 C0,23.25 6.82180851,30 15.1595745,30 L41.8404255,30 C50.1781915,30 57,23.25 57,15 L57,15 C57,6.75 50.1781915,0 41.8404255,0 Z" id="Base_1_" fill="#FFFFFF"></path>
                    <path d="M41.8404255,1.215 C43.712633,1.215 45.5317819,1.5825 47.2448138,2.3025 C48.9047872,3 50.3904255,3.9975 51.6789894,5.265 C52.9599734,6.5325 53.9680851,8.01 54.6730053,9.6525 C55.4006649,11.3475 55.7720745,13.1475 55.7720745,15 C55.7720745,16.8525 55.4006649,18.6525 54.6730053,20.3475 C53.9680851,21.99 52.9599734,23.46 51.6789894,24.735 C50.3980053,26.0025 48.9047872,27 47.2448138,27.6975 C45.5317819,28.4175 43.712633,28.785 41.8404255,28.785 L15.1595745,28.785 C13.287367,28.785 11.4682181,28.4175 9.75518617,27.6975 C8.09521277,27 6.60957447,26.0025 5.32101064,24.735 C4.0400266,23.4675 3.03191489,21.99 2.32699468,20.3475 C1.59933511,18.6525 1.22792553,16.8525 1.22792553,15 C1.22792553,13.1475 1.59933511,11.3475 2.32699468,9.6525 C3.03191489,8.01 4.0400266,6.54 5.32101064,5.265 C6.60199468,3.9975 8.09521277,3 9.75518617,2.3025 C11.4682181,1.5825 13.287367,1.215 15.1595745,1.215 L41.8404255,1.215 M41.8404255,0 L15.1595745,0 C6.82180851,0 0,6.75 0,15 L0,15 C0,23.25 6.82180851,30 15.1595745,30 L41.8404255,30 C50.1781915,30 57,23.25 57,15 L57,15 C57,6.75 50.1781915,0 41.8404255,0 L41.8404255,0 Z" id="Outline" fill="#3C4043"></path>
                    <g id="G_Pay_Lockup_1_" transform="translate(9.000000, 8.000000)">
                        <g id="Pay_Typeface_3_" transform="translate(16.340727, 0.849903)" fill="#3C4043">
                            <path d="M1.39502868,6.93177388 L1.39502868,11.6491228 L0,11.6491228 L0,0 L3.69827916,0 C4.63556405,0 5.43479924,0.335282651 6.08871893,1.00584795 C6.75717017,1.67641326 7.09139579,2.49512671 7.09139579,3.4619883 C7.09139579,4.45224172 6.75717017,5.27095517 6.08871893,5.9337232 C5.44206501,6.59649123 4.64282983,6.92397661 3.69827916,6.92397661 L1.39502868,6.92397661 L1.39502868,6.93177388 Z M1.39502868,1.43469786 L1.39502868,5.49707602 L3.72734226,5.49707602 C4.27954111,5.49707602 4.74455067,5.29434698 5.10783939,4.89668616 C5.47839388,4.49902534 5.66730402,4.01559454 5.66730402,3.46978558 C5.66730402,2.93177388 5.47839388,2.45614035 5.10783939,2.05847953 C4.74455067,1.64522417 4.28680688,1.44249513 3.72734226,1.44249513 L1.39502868,1.44249513 L1.39502868,1.43469786 Z" id="Letter_p_3_"></path>
                            <path d="M10.7388145,3.41520468 C11.7705545,3.41520468 12.5843212,3.71150097 13.1801147,4.30409357 C13.7759082,4.89668616 14.073805,5.70760234 14.073805,6.73684211 L14.073805,11.6491228 L12.7441683,11.6491228 L12.7441683,10.5419103 L12.6860421,10.5419103 C12.1120459,11.454191 11.3418738,11.9064327 10.3827916,11.9064327 C9.56175908,11.9064327 8.87877629,11.6491228 8.32657744,11.1267057 C7.77437859,10.6042885 7.49827916,9.95711501 7.49827916,9.17738791 C7.49827916,8.35087719 7.78891013,7.69590643 8.37017208,7.21247563 C8.95143403,6.72124756 9.72887189,6.47953216 10.6952199,6.47953216 C11.5235182,6.47953216 12.206501,6.64327485 12.7369025,6.97076023 L12.7369025,6.62768031 C12.7369025,6.10526316 12.5479924,5.66861598 12.1629063,5.30214425 C11.7778203,4.93567251 11.3273423,4.75633528 10.8114723,4.75633528 C10.0340344,4.75633528 9.41644359,5.10721248 8.96596558,5.81676413 L7.73804971,4.99025341 C8.41376673,3.93762183 9.41644359,3.41520468 10.7388145,3.41520468 Z M8.93690249,9.20077973 C8.93690249,9.59064327 9.08948375,9.91812865 9.40191205,10.1754386 C9.70707457,10.4327485 10.0703633,10.5653021 10.4845124,10.5653021 C11.0730402,10.5653021 11.5961759,10.331384 12.0539197,9.86354776 C12.5116635,9.3957115 12.7441683,8.84990253 12.7441683,8.21832359 C12.3082218,7.85185185 11.7051625,7.66471735 10.9277247,7.66471735 C10.3609943,7.66471735 9.88871893,7.8128655 9.51089866,8.10136452 C9.12581262,8.40545809 8.93690249,8.77192982 8.93690249,9.20077973 Z" id="Letter_a_3_"></path>
                            <polygon id="Letter_y_3_" points="21.6592734 3.67251462 17.0091778 15.1500975 15.5705545 15.1500975 17.2998088 11.1345029 14.233652 3.67251462 15.7521989 3.67251462 17.9609943 9.3957115 17.9900574 9.3957115 20.1407266 3.67251462"></polygon>
                        </g>
                        <g id="G_Mark_1_">
                            <path d="M12.1868834,6.83040936 C12.1868834,6.34230019 12.146195,5.87524366 12.070631,5.42612086 L6.22313576,5.42612086 L6.22313576,7.99922027 L9.59082218,8 C9.45422562,8.85614035 9.01464627,9.58596491 8.34110899,10.0725146 L8.34110899,11.7419103 L10.3457361,11.7419103 C11.5162524,10.5793372 12.1868834,8.86081871 12.1868834,6.83040936 Z" id="Blue_500" fill="#4285F4"></path>
                            <path d="M8.34183556,10.0725146 C7.78382409,10.4764133 7.06523901,10.7126706 6.22458891,10.7126706 C4.60068834,10.7126706 3.22309751,9.53840156 2.72975143,7.95555556 L0.661912046,7.95555556 L0.661912046,9.67719298 C1.68638623,11.8588694 3.79200765,13.3559454 6.22458891,13.3559454 C7.9058891,13.3559454 9.31835564,12.7625731 10.3464627,11.7411306 L8.34183556,10.0725146 Z" id="Green_500_1_" fill="#34A853"></path>
                            <path d="M2.53502868,6.67836257 C2.53502868,6.23391813 2.60405354,5.8042885 2.72975143,5.40038986 L2.72975143,3.67875244 L0.661912046,3.67875244 C0.2383174,4.58089669 0,5.59922027 0,6.67836257 C0,7.75750487 0.239043977,8.77582846 0.661912046,9.67797271 L2.72975143,7.95633528 C2.60405354,7.55243665 2.53502868,7.12280702 2.53502868,6.67836257 Z" id="Yellow_500_1_" fill="#FABB05"></path>
                            <path d="M6.22458891,2.64327485 C7.14225621,2.64327485 7.9640153,2.98245614 8.61284895,3.64522417 L10.3893308,1.74035088 C9.31036329,0.661988304 7.90370937,0 6.22458891,0 C3.79273423,0 1.68638623,1.49707602 0.661912046,3.67875244 L2.72975143,5.40038986 C3.22309751,3.81754386 4.60068834,2.64327485 6.22458891,2.64327485 Z" id="Red_500" fill="#E94235"></path>
                        </g>
                    </g>
                </g>
            </g>
        </g>
    </g>
</svg>