<svg width="75" height="29" viewBox="0 0 75 29" fill="none" xmlns="http://www.w3.org/2000/svg">
<path d="M39.1317 28.4588H34.7217C29.4131 28.4588 25.0938 24.5265 25.0938 19.6937V0H30.5478V19.6937C30.5478 21.7893 32.4198 23.4946 34.7217 23.4946H39.1317V28.4588Z" fill="#16262E"/>
<path d="M45.8145 6.11103C47.6539 6.11103 49.1446 4.75393 49.1446 3.07938C49.1446 1.40483 47.6539 0.0477295 45.8145 0.0477295C43.9751 0.0477295 42.4844 1.40483 42.4844 3.07938C42.4833 4.75297 43.9751 6.11103 45.8145 6.11103Z" fill="#16262E"/>
<path d="M23.3636 28.4578L14.7048 17.2193L21.8128 7.99485H15.1515L5.45399 20.5809V0.0181885H0V27.6579V28.4578H5.45399H6.04501L11.3736 21.5418L16.7033 28.4578H23.3636Z" fill="#16262E"/>
<path d="M74.9986 28.4583L67.0794 18.1808L74.9291 7.99536H68.2678L63.7493 13.8592L59.2308 7.99536H52.5695L60.4181 18.1808L52.5 28.4573H59.1613L63.7493 22.5034L68.3373 28.4583H74.9986Z" fill="#16262E"/>
<path d="M36.0547 7.99585V12.891H43.326V28.4588H48.7789V7.99585H36.0547Z" fill="#16262E"/>
</svg>
