<?xml version="1.0" encoding="utf-8"?>
<!-- Generator: Adobe Illustrator 22.0.0, SVG Export Plug-In . SVG Version: 6.00 Build 0)  -->
<svg version="1.1" id="Layer_1" xmlns="http://www.w3.org/2000/svg" xmlns:xlink="http://www.w3.org/1999/xlink" x="0px" y="0px"
	 viewBox="0 0 256 199" style="enable-background:new 0 0 256 199;" xml:space="preserve">
<style type="text/css">
	.st0{fill:#FF5F00;}
	.st1{fill:#EB001B;}
	.st2{fill:#F79E1B;}
</style>
<g>
	<path d="M46.5,198v-13.2c0-5-3.1-8.3-8.3-8.3c-2.6,0-5.5,0.9-7.5,3.7c-1.5-2.4-3.7-3.7-7-3.7c-2.2,0-4.4,0.7-6.1,3.1v-2.6H13V198
		h4.6v-11.6c0-3.7,2-5.5,5-5.5s4.6,2,4.6,5.5V198h4.6v-11.6c0-3.7,2.2-5.5,5-5.5c3.1,0,4.6,2,4.6,5.5V198H46.5L46.5,198z
		 M114.8,176.9h-7.5v-6.4h-4.6v6.4h-4.2v4.2h4.2v9.7c0,4.8,2,7.7,7.2,7.7c2,0,4.2-0.7,5.7-1.5l-1.3-4c-1.3,0.9-2.9,1.1-4,1.1
		c-2.2,0-3.1-1.3-3.1-3.5v-9.4h7.5V176.9L114.8,176.9z M153.9,176.5c-2.6,0-4.4,1.3-5.5,3.1v-2.6h-4.6V198h4.6v-11.9
		c0-3.5,1.5-5.5,4.4-5.5c0.9,0,2,0.2,2.9,0.4l1.3-4.4C156.1,176.5,154.8,176.5,153.9,176.5L153.9,176.5L153.9,176.5z M94.8,178.7
		c-2.2-1.5-5.3-2.2-8.6-2.2c-5.3,0-8.8,2.6-8.8,6.8c0,3.5,2.6,5.5,7.2,6.1l2.2,0.2c2.4,0.4,3.7,1.1,3.7,2.2c0,1.5-1.8,2.6-4.8,2.6
		s-5.5-1.1-7-2.2l-2.2,3.5c2.4,1.8,5.7,2.6,9,2.6c6.1,0,9.7-2.9,9.7-6.8c0-3.7-2.9-5.7-7.2-6.4l-2.2-0.2c-2-0.2-3.5-0.7-3.5-2
		c0-1.5,1.5-2.4,4-2.4c2.6,0,5.3,1.1,6.6,1.8L94.8,178.7L94.8,178.7z M217.3,176.5c-2.6,0-4.4,1.3-5.5,3.1v-2.6h-4.6V198h4.6v-11.9
		c0-3.5,1.5-5.5,4.4-5.5c0.9,0,2,0.2,2.9,0.4l1.3-4.4C219.5,176.5,218.2,176.5,217.3,176.5L217.3,176.5L217.3,176.5z M158.5,187.5
		c0,6.4,4.4,11,11.2,11c3.1,0,5.3-0.7,7.5-2.4l-2.2-3.7c-1.8,1.3-3.5,2-5.5,2c-3.7,0-6.4-2.6-6.4-6.8c0-4,2.6-6.6,6.4-6.8
		c2,0,3.7,0.7,5.5,2l2.2-3.7c-2.2-1.8-4.4-2.4-7.5-2.4C162.9,176.5,158.5,181.1,158.5,187.5L158.5,187.5L158.5,187.5z M201.1,187.5
		v-10.5h-4.6v2.6c-1.5-2-3.7-3.1-6.6-3.1c-5.9,0-10.5,4.6-10.5,11c0,6.4,4.6,11,10.5,11c3.1,0,5.3-1.1,6.6-3.1v2.6h4.6V187.5z
		 M184.2,187.5c0-3.7,2.4-6.8,6.4-6.8c3.7,0,6.4,2.9,6.4,6.8c0,3.7-2.6,6.8-6.4,6.8C186.6,194.1,184.2,191.2,184.2,187.5
		L184.2,187.5z M129.1,176.5c-6.1,0-10.5,4.4-10.5,11s4.4,11,10.8,11c3.1,0,6.1-0.9,8.6-2.9l-2.2-3.3c-1.8,1.3-4,2.2-6.1,2.2
		c-2.9,0-5.7-1.3-6.4-5h15.6v-1.8C139,180.9,135,176.5,129.1,176.5L129.1,176.5L129.1,176.5z M129.1,180.4c2.9,0,4.8,1.8,5.3,5h-11
		C123.8,182.6,125.8,180.4,129.1,180.4L129.1,180.4z M243.5,187.5v-18.9h-4.6v11c-1.5-2-3.7-3.1-6.6-3.1c-5.9,0-10.5,4.6-10.5,11
		c0,6.4,4.6,11,10.5,11c3.1,0,5.3-1.1,6.6-3.1v2.6h4.6V187.5z M226.5,187.5c0-3.7,2.4-6.8,6.4-6.8c3.7,0,6.4,2.9,6.4,6.8
		c0,3.7-2.6,6.8-6.4,6.8C229,194.1,226.5,191.2,226.5,187.5L226.5,187.5z M72.4,187.5v-10.5h-4.6v2.6c-1.5-2-3.7-3.1-6.6-3.1
		c-5.9,0-10.5,4.6-10.5,11c0,6.4,4.6,11,10.5,11c3.1,0,5.3-1.1,6.6-3.1v2.6h4.6V187.5z M55.3,187.5c0-3.7,2.4-6.8,6.4-6.8
		c3.7,0,6.4,2.9,6.4,6.8c0,3.7-2.6,6.8-6.4,6.8C57.7,194.1,55.3,191.2,55.3,187.5z"/>
	<rect x="93.3" y="16.9" class="st0" width="69.2" height="124.3"/>
	<path class="st1" d="M97.7,79c0-25.2,11.9-47.6,30.1-62.1C114.4,6.4,97.5,0,79,0C35.3,0,0,35.3,0,79s35.3,79,79,79
		c18.4,0,35.3-6.4,48.7-16.9C109.5,126.9,97.7,104.3,97.7,79z"/>
	<path class="st2" d="M255.7,79c0,43.7-35.3,79-79,79c-18.4,0-35.3-6.4-48.7-16.9c18.4-14.5,30.1-36.9,30.1-62.1
		S146.2,31.4,128,16.9C141.4,6.4,158.3,0,176.7,0C220.4,0,255.7,35.6,255.7,79z"/>
</g>
</svg>
