<?xml version="1.0" encoding="utf-8"?>
<!-- Generator: Adobe Illustrator 22.0.0, SVG Export Plug-In . SVG Version: 6.00 Build 0)  -->
<svg version="1.1" id="Layer_1" xmlns="http://www.w3.org/2000/svg" xmlns:xlink="http://www.w3.org/1999/xlink" x="0px" y="0px"
	 viewBox="0 0 118.9 29" style="enable-background:new 0 0 118.9 29;" xml:space="preserve">
<style type="text/css">
	.st0{clip-path:url(#XMLID_9_);}
	.st1{clip-path:url(#XMLID_16_);}
	.st2{clip-path:url(#XMLID_17_);}
	.st3{fill:#253D80;}
	.st4{fill:#189BD7;}
	.st5{fill:#242E65;}
	.st6{clip-path:url(#XMLID_20_);}
	.st7{clip-path:url(#XMLID_22_);}
</style>
<g id="XMLID_87_">
	<g id="XMLID_88_">
		<defs>
			<rect id="XMLID_52_" x="0" width="119.3" height="31.7"/>
		</defs>
		<clipPath id="XMLID_7_">
			<use xlink:href="#XMLID_52_"  style="overflow:visible;"/>
		</clipPath>
	</g>
</g>
<g id="XMLID_82_">
	<g id="XMLID_83_">
		<defs>
			<rect id="XMLID_50_" x="0" width="119.3" height="31.7"/>
		</defs>
		<clipPath id="XMLID_9_">
			<use xlink:href="#XMLID_50_"  style="overflow:visible;"/>
		</clipPath>
		<g id="XMLID_85_" class="st0">
			<defs>
				<rect id="XMLID_51_" x="0" width="119.3" height="31.7"/>
			</defs>
			<clipPath id="XMLID_11_">
				<use xlink:href="#XMLID_51_"  style="overflow:visible;"/>
			</clipPath>
		</g>
	</g>
</g>
<g id="XMLID_75_">
	<g id="XMLID_76_">
		<defs>
			<rect id="XMLID_47_" x="0" width="119.3" height="31.7"/>
		</defs>
		<clipPath id="XMLID_16_">
			<use xlink:href="#XMLID_47_"  style="overflow:visible;"/>
		</clipPath>
		<g id="XMLID_78_" class="st1">
			<defs>
				<rect id="XMLID_48_" x="0" width="119.3" height="31.7"/>
			</defs>
			<clipPath id="XMLID_17_">
				<use xlink:href="#XMLID_48_"  style="overflow:visible;"/>
			</clipPath>
			<g id="XMLID_80_" class="st2">
				<defs>
					<rect id="XMLID_49_" x="0" width="119.3" height="31.7"/>
				</defs>
				<clipPath id="XMLID_18_">
					<use xlink:href="#XMLID_49_"  style="overflow:visible;"/>
				</clipPath>
			</g>
		</g>
	</g>
</g>
<g id="XMLID_72_">
	<g id="XMLID_73_">
		<defs>
			<rect id="XMLID_46_" x="0" width="119.3" height="31.7"/>
		</defs>
		<clipPath id="XMLID_19_">
			<use xlink:href="#XMLID_46_"  style="overflow:visible;"/>
		</clipPath>
	</g>
</g>
<g id="XMLID_12_">
	<g id="XMLID_13_">
		<g id="XMLID_14_">
			<g id="XMLID_15_">
				<path id="XMLID_57_" class="st3" d="M45.2,12.7C44.9,15,43,15,41.3,15h-1l0.7-4.4c0-0.3,0.3-0.5,0.5-0.5H42c1.2,0,2.3,0,2.9,0.7
					C45.2,11.2,45.3,11.8,45.2,12.7z M44.5,6.5h-6.6c-0.5,0-0.8,0.3-0.9,0.8l-2.7,16.9c-0.1,0.3,0.2,0.6,0.5,0.6H38
					c0.5,0,0.8-0.3,0.9-0.8l0.7-4.5c0.1-0.4,0.5-0.8,0.9-0.8h2.1c4.3,0,6.8-2.1,7.5-6.3c0.3-1.8,0-3.2-0.8-4.2
					C48.3,7.1,46.7,6.5,44.5,6.5z"/>
				<path id="XMLID_54_" class="st3" d="M59.7,18.7c-0.3,1.8-1.7,3-3.6,3c-0.9,0-1.6-0.3-2.1-0.8c-0.5-0.6-0.6-1.3-0.5-2.2
					c0.3-1.8,1.7-3,3.5-3c0.9,0,1.6,0.3,2.1,0.9C59.7,17,59.9,17.8,59.7,18.7z M64.1,12.6H61c-0.3,0-0.5,0.2-0.5,0.5l-0.1,0.9
					l-0.2-0.3c-0.7-1-2.2-1.3-3.7-1.3c-3.5,0-6.5,2.6-7,6.3c-0.3,1.8,0.1,3.6,1.2,4.8c1,1.1,2.3,1.6,4,1.6c2.8,0,4.4-1.8,4.4-1.8
					l-0.1,0.9c-0.1,0.3,0.2,0.6,0.5,0.6h2.8c0.5,0,0.8-0.3,0.9-0.8l1.7-10.8C64.7,12.9,64.5,12.6,64.1,12.6z"/>
				<path id="XMLID_33_" class="st3" d="M80.9,12.6h-3.2c-0.3,0-0.6,0.2-0.8,0.4l-4.4,6.4l-1.9-6.2c-0.1-0.4-0.5-0.7-0.9-0.7h-3.1
					c-0.4,0-0.6,0.4-0.5,0.7l3.5,10.2l-3.3,4.6c-0.3,0.4,0,0.9,0.4,0.9h3.2c0.3,0,0.6-0.1,0.8-0.4l10.5-15.2
					C81.6,13.1,81.3,12.6,80.9,12.6z"/>
				<path id="XMLID_38_" class="st4" d="M92.1,12.7C91.8,15,90,15,88.2,15h-1l0.7-4.4c0-0.3,0.3-0.5,0.5-0.5h0.5
					c1.2,0,2.3,0,2.9,0.7C92.2,11.2,92.3,11.8,92.1,12.7z M91.4,6.5h-6.6c-0.4,0-0.8,0.3-0.9,0.8l-2.7,16.9
					c-0.1,0.3,0.2,0.6,0.5,0.6h3.4c0.3,0,0.6-0.2,0.6-0.5l0.8-4.8c0.1-0.4,0.5-0.8,0.9-0.8h2.1c4.3,0,6.8-2.1,7.5-6.3
					c0.3-1.8,0-3.2-0.8-4.2C95.2,7.1,93.6,6.5,91.4,6.5z"/>
				<path id="XMLID_21_" class="st4" d="M106.6,18.7c-0.3,1.8-1.7,3-3.6,3c-0.9,0-1.6-0.3-2.1-0.8c-0.5-0.6-0.6-1.3-0.5-2.2
					c0.3-1.8,1.7-3,3.5-3c0.9,0,1.6,0.3,2.1,0.9C106.6,17,106.8,17.8,106.6,18.7z M111,12.6h-3.1c-0.3,0-0.5,0.2-0.5,0.5l-0.1,0.9
					l-0.2-0.3c-0.7-1-2.2-1.3-3.7-1.3c-3.5,0-6.5,2.6-7,6.3c-0.3,1.8,0.1,3.6,1.2,4.8c1,1.1,2.3,1.6,4,1.6c2.8,0,4.4-1.8,4.4-1.8
					l-0.1,0.9c-0.1,0.3,0.2,0.6,0.5,0.6h2.8c0.4,0,0.8-0.3,0.9-0.8l1.7-10.8C111.6,12.9,111.4,12.6,111,12.6z"/>
				<path id="XMLID_28_" class="st4" d="M114.8,7l-2.7,17.2c-0.1,0.3,0.2,0.6,0.5,0.6h2.7c0.5,0,0.8-0.3,0.9-0.8l2.7-16.9
					c0.1-0.3-0.2-0.6-0.5-0.6h-3C115,6.5,114.8,6.7,114.8,7z"/>
				<path id="XMLID_27_" class="st3" d="M7,28l0.5-3.2l-1.1,0H1L4.7,1.2c0-0.1,0-0.1,0.1-0.2C4.9,1,5,1,5,1h9c3,0,5.1,0.6,6.1,1.9
					c0.5,0.6,0.8,1.2,1,1.8c0.2,0.7,0.2,1.5,0,2.5l0,0.1V8l0.5,0.3c0.4,0.2,0.8,0.5,1,0.8c0.4,0.5,0.7,1.1,0.8,1.9
					c0.1,0.8,0.1,1.7-0.1,2.7c-0.2,1.2-0.6,2.2-1.1,3.1c-0.5,0.8-1.1,1.4-1.8,1.9c-0.7,0.5-1.5,0.8-2.4,1.1c-0.9,0.2-1.9,0.3-3,0.3
					h-0.7c-0.5,0-1,0.2-1.4,0.5c-0.4,0.3-0.6,0.8-0.7,1.3l-0.1,0.3l-0.9,5.6l0,0.2c0,0.1,0,0.1-0.1,0.1c0,0-0.1,0-0.1,0H7z"/>
				<path id="XMLID_26_" class="st4" d="M22.2,7.4c0,0.2-0.1,0.3-0.1,0.5c-1.2,6.1-5.3,8.2-10.5,8.2H9c-0.6,0-1.2,0.5-1.3,1.1
					l-1.4,8.6L6,28.2C5.9,28.7,6.2,29,6.6,29h4.7c0.6,0,1-0.4,1.1-1l0-0.2l0.9-5.6l0.1-0.3c0.1-0.6,0.6-1,1.1-1h0.7
					c4.5,0,8.1-1.8,9.2-7.2c0.4-2.2,0.2-4.1-0.9-5.4C23.1,8,22.7,7.6,22.2,7.4z"/>
				<path id="XMLID_25_" class="st5" d="M20.9,6.9c-0.2-0.1-0.4-0.1-0.6-0.1c-0.2,0-0.4-0.1-0.6-0.1c-0.7-0.1-1.5-0.2-2.3-0.2h-7.1
					c-0.2,0-0.3,0-0.5,0.1C9.5,6.7,9.3,7,9.2,7.4l-1.5,9.5l0,0.3c0.1-0.6,0.6-1.1,1.3-1.1h2.6c5.2,0,9.3-2.1,10.5-8.2
					c0-0.2,0.1-0.4,0.1-0.5c-0.3-0.2-0.6-0.3-1-0.4C21.1,6.9,21,6.9,20.9,6.9z"/>
				<path id="XMLID_24_" class="st3" d="M9.2,7.4C9.3,7,9.5,6.7,9.9,6.6c0.1-0.1,0.3-0.1,0.5-0.1h7.1c0.8,0,1.6,0.1,2.3,0.2
					c0.2,0,0.4,0.1,0.6,0.1c0.2,0,0.4,0.1,0.6,0.1c0.1,0,0.2,0.1,0.3,0.1c0.4,0.1,0.7,0.3,1,0.4c0.4-2.3,0-3.8-1.2-5.2
					C19.6,0.7,17.2,0,14.1,0H5C4.4,0,3.9,0.5,3.8,1.1L0,24.9c-0.1,0.5,0.3,0.9,0.8,0.9h5.6l1.4-8.9L9.2,7.4z"/>
			</g>
		</g>
	</g>
</g>
<g id="XMLID_5_">
	<g id="XMLID_6_">
		<defs>
			<polyline id="XMLID_1_" points="119.3,0 119.3,31.7 0,31.7 0,0 			"/>
		</defs>
		<clipPath id="XMLID_20_">
			<use xlink:href="#XMLID_1_"  style="overflow:visible;"/>
		</clipPath>
		<g id="XMLID_8_" class="st6">
			<defs>
				<polyline id="XMLID_2_" points="119.3,0 119.3,31.7 0,31.7 0,0 				"/>
			</defs>
			<clipPath id="XMLID_22_">
				<use xlink:href="#XMLID_2_"  style="overflow:visible;"/>
			</clipPath>
			<g id="XMLID_10_" class="st7">
				<defs>
					<polyline id="XMLID_3_" points="119.3,0 119.3,31.7 0,31.7 0,0 					"/>
				</defs>
				<clipPath id="XMLID_23_">
					<use xlink:href="#XMLID_3_"  style="overflow:visible;"/>
				</clipPath>
			</g>
		</g>
	</g>
</g>
</svg>
